<svg xmlns="http://www.w3.org/2000/svg" xmlns:xlink="http://www.w3.org/1999/xlink" width="235" height="41" viewBox="0 0 235 41">
    <defs>
        <path id="a" d="M148.968 15.686c1.811 0 3.252.556 4.322 1.628 1.152 1.072 1.728 2.423 1.728 4.05 0 2.224-.946 4.21-2.84 5.957-1.851 1.707-3.95 2.58-6.255 2.58-1.564 0-2.757-.436-3.622-1.31-.411 1.867-.781 3.773-1.193 5.678-.082.517-.453.795-1.029.795h-1.728c-.577 0-.865-.239-.865-.755 0-.08 0-.198.042-.278 1.234-5.837 2.51-11.674 3.786-17.51.123-.557.411-.795.905-.716h1.81c.618 0 .947.199.947.636 0 .08 0 .198-.04.317 1.193-.714 2.55-1.072 4.032-1.072zm1.112 9.213c.864-.874 1.275-1.867 1.275-2.9 0-.912-.329-1.587-.946-2.104-.535-.476-1.235-.675-2.058-.675-1.276 0-2.387.477-3.375 1.47-.864.833-1.275 1.826-1.275 2.898 0 .913.329 1.628.946 2.144.535.437 1.194.675 2.017.675 1.276 0 2.428-.516 3.416-1.508zm18.978-7.604c1.123 1.113 1.685 2.515 1.645 4.247 0 2.31-.923 4.413-2.768 6.227-1.765 1.774-3.811 2.681-6.057 2.681-1.725 0-3.13-.536-4.252-1.65-1.124-1.113-1.685-2.556-1.685-4.288 0-2.31.923-4.372 2.768-6.186 1.805-1.774 3.85-2.64 6.177-2.64 1.685 0 3.089.536 4.172 1.609zm-3.21 7.918c.843-.949 1.244-1.98 1.284-3.052 0-.907-.32-1.608-.922-2.145-.522-.453-1.163-.7-1.966-.7-1.243 0-2.366.536-3.289 1.567-.802.866-1.203 1.855-1.203 2.969 0 .948.28 1.69.882 2.227.522.453 1.163.7 1.926.7 1.243 0 2.326-.535 3.289-1.566zm15.416-9.527c1.81 0 3.251.556 4.321 1.628 1.152 1.072 1.729 2.423 1.729 4.05 0 2.224-.947 4.21-2.84 5.957-1.852 1.707-3.95 2.58-6.256 2.58-1.563 0-2.757-.436-3.621-1.31-.412 1.867-.782 3.773-1.194 5.678-.082.517-.452.795-1.028.795h-1.729c-.576 0-.864-.239-.864-.755 0-.08.041-.198.041-.278 1.276-5.837 2.51-11.674 3.786-17.51.124-.557.412-.795.906-.716h1.81c.618 0 .947.199.947.636 0 .08 0 .198-.041.317 1.193-.714 2.551-1.072 4.033-1.072zm1.111 9.213c.864-.874 1.276-1.867 1.235-2.9 0-.912-.33-1.587-.947-2.104-.535-.476-1.234-.675-2.058-.675-1.275 0-2.387.477-3.374 1.47-.864.833-1.276 1.826-1.276 2.898 0 .913.33 1.628.947 2.144.576.437 1.234.675 2.057.675 1.276 0 2.428-.516 3.416-1.508zM203 17.252c0 .04-.042.157-.042.393-.876 3.928-1.793 7.895-2.669 11.823-.083.51-.459.786-1.042.786h-1.627c-.584 0-.917-.236-.917-.707-.751.589-1.794.903-3.087.903-1.334 0-2.46-.275-3.378-.864-1.334-.864-2.002-2.082-2.002-3.732 0-.471.042-.903.167-1.374.542-2.396 1.085-4.753 1.627-7.15.125-.55.417-.785.917-.706h1.919c.625 0 .917.196.917.628 0 .079-.042.157-.042.275-.542 2.278-1.042 4.596-1.584 6.874-.042.118-.042.275-.042.471 0 .707.25 1.218.709 1.61.417.354.917.511 1.501.511.834 0 1.585-.235 2.21-.707.543-.432.918-1.02 1.085-1.846.542-2.396 1.084-4.752 1.627-7.11.083-.55.375-.785.875-.706h1.96c.626 0 .918.196.918.628zm6.46-5.523c0 .08-.041.24-.041.441-1.21 5.813-2.46 11.666-3.671 17.478-.121.521-.444.802-1.008.802h-1.735c-.605 0-.928-.24-.928-.762 0-.08.04-.2.04-.28 1.251-5.893 2.502-11.746 3.752-17.599.121-.56.403-.801.887-.721h1.856c.565 0 .847.2.847.641zm13.84 4.782c0 .083-.04.206-.118.371-.828 4.207-1.695 8.372-2.523 12.537-.078.536-.433.825-.985.825h-1.498c-.59 0-.906-.248-.906-.784 0-.082 0-.165.04-.288l.117-.124c-1.143.948-2.483 1.402-3.98 1.402-1.695 0-3.074-.577-4.178-1.69-1.104-1.114-1.655-2.516-1.655-4.248 0-2.269.906-4.33 2.72-6.145 1.773-1.773 3.743-2.68 5.99-2.68 1.498 0 2.68.412 3.547 1.237 0-.124.04-.248.04-.372.118-.577.394-.824.867-.742h1.655c.591 0 .867.248.867.701zm-5.99 8.784c.827-.907 1.26-1.938 1.221-3.052 0-.907-.315-1.608-.906-2.144-.513-.495-1.183-.701-1.971-.701-1.222 0-2.286.495-3.232 1.526-.828.866-1.222 1.897-1.222 3.01 0 .949.316 1.691.907 2.227.512.454 1.143.701 1.93.701 1.223 0 2.326-.536 3.272-1.567zm16.195-9.609c.579 0 .868.209.868.668 0 .125 0 .208-.042.333-.124.626-.247 1.21-.371 1.835-.083.542-.455.834-1.033.834h-.661c-2.025.042-3.264.918-3.678 2.711-.537 2.503-1.032 5.047-1.57 7.549-.082.542-.454.834-1.032.834h-1.736c-.62 0-.95-.25-.95-.792 0-.084.041-.167.041-.292.868-4.254 1.777-8.466 2.686-12.72.124-.584.413-.835.909-.751h1.776c.579 0 .91.208.95.625.62-.542 1.653-.792 3.14-.834h.703zm-107.412 0c1.685 0 3.089.536 4.172 1.65 1.123 1.113 1.685 2.516 1.685 4.206 0 2.31-.923 4.413-2.768 6.227-1.765 1.774-3.811 2.681-6.058 2.681-1.725 0-3.13-.536-4.253-1.65-1.123-1.113-1.685-2.556-1.685-4.288 0-2.31.883-4.372 2.728-6.186 1.806-1.774 3.852-2.64 6.179-2.64zm.963 9.527c.842-.908 1.283-1.939 1.283-3.052 0-.907-.32-1.608-.922-2.145-.522-.453-1.164-.7-1.966-.7-1.244 0-2.327.536-3.29 1.567-.802.866-1.203 1.855-1.203 2.969 0 .948.28 1.69.882 2.227.522.453 1.164.7 1.926.7 1.243 0 2.327-.535 3.29-1.566zm-15.933-9.527c1.898 0 3.44.703 4.627 2.068.355.414.514.703.514.91 0 .29-.159.579-.475.786-.514.33-.989.661-1.503.992-.197.124-.395.207-.553.207-.238 0-.514-.124-.791-.414-.554-.62-1.305-.91-2.294-.91-1.265 0-2.373.538-3.322 1.572-.79.869-1.186 1.861-1.186 2.978 0 .95.316 1.695.91 2.233.514.455 1.186.703 1.937.703 1.226 0 2.254-.496 3.164-1.572.237-.29.474-.413.751-.413.119 0 .277.041.475.124.435.207.87.455 1.305.661.356.207.553.414.553.704 0 .372-.395.868-1.107 1.612-1.74 1.696-3.678 2.523-5.813 2.523-1.74 0-3.124-.538-4.231-1.654-1.108-1.117-1.661-2.564-1.661-4.301 0-2.275.87-4.342 2.689-6.162 1.78-1.778 3.757-2.647 6.01-2.647zm-11.585.868c1.335.828 2.002 2.05 1.96 3.588 0 .434-.042.907-.167 1.38-.5 2.406-1.042 4.811-1.584 7.217-.125.512-.5.788-1.084.788h-1.794c-.625 0-.959-.236-.959-.749 0-.079.042-.158.042-.237.542-2.326 1.043-4.613 1.585-6.9.041-.158.041-.316.041-.513 0-.513-.125-.946-.458-1.301-.417-.473-1.001-.71-1.752-.71-.792 0-1.5.237-2.085.67-.625.474-1 1.144-1.209 2.011-.542 2.327-1.043 4.614-1.585 6.94-.083.513-.458.79-1.042.79h-1.752c-.625 0-.959-.237-.959-.75 0-.079.042-.158.042-.276.876-4.022 1.793-8.005 2.71-12.027.084-.552.418-.789.918-.71h1.751c.584 0 .876.197.918.592.792-.434 1.835-.67 3.086-.67 1.334 0 2.502.275 3.377.867zM87.66 16.47c0 .082 0 .206-.118.412-.828 4.207-1.695 8.372-2.523 12.537-.078.536-.433.825-.985.825h-1.498c-.59 0-.906-.248-.906-.784 0-.082 0-.165.04-.288l.118-.124c-1.143.948-2.483 1.402-3.981 1.402-1.695 0-3.074-.577-4.178-1.69-1.103-1.114-1.655-2.516-1.655-4.248 0-2.269.906-4.33 2.72-6.145 1.773-1.773 3.743-2.68 5.99-2.68 1.498 0 2.68.412 3.547 1.237 0-.124.04-.248.04-.372.118-.577.394-.824.867-.742h1.655c.591 0 .867.206.867.66zm-5.951 8.784c.827-.949 1.222-1.938 1.222-3.052 0-.907-.316-1.608-.907-2.144-.512-.495-1.182-.701-1.97-.701-1.222 0-2.287.495-3.232 1.526-.828.866-1.222 1.897-1.222 3.01 0 .948.315 1.69.906 2.227.513.454 1.143.7 1.931.7 1.222 0 2.326-.535 3.272-1.566zm-17.4-9.931c1.691 0 3.107.516 4.129 1.627 1.14 1.07 1.69 2.42 1.69 4.047 0 2.222-.904 4.205-2.712 5.951-1.809 1.706-3.814 2.58-6.015 2.58-1.494 0-2.674-.437-3.539-1.31v.278c-.078.555-.432.833-.983.833h-1.572c-.59 0-.865-.238-.865-.754 0-.08.04-.159.04-.278a3496.75 3496.75 0 0 0 3.695-17.418c.078-.555.354-.793.825-.714h1.848c.55 0 .826.198.826.635 0 .08 0 .198-.04.357-.393 1.785-.786 3.531-1.179 5.277 1.1-.754 2.398-1.111 3.853-1.111zm1.023 9.205c.865-.873 1.258-1.865 1.219-2.857 0-.873-.276-1.587-.905-2.103-.51-.436-1.179-.674-2.005-.674-1.218 0-2.32.476-3.263 1.468-.786.833-1.218 1.825-1.218 2.896 0 .873.314 1.587.904 2.103.51.437 1.18.675 1.966.675 1.218 0 2.32-.516 3.302-1.508zM47.805 0c2.46 0 4.273 2.247 3.79 4.614A45240.812 45240.812 0 0 1 44.58 37.55c-.362 1.765-1.934 3.049-3.789 3.049H15.478a2.8 2.8 0 0 1-2.737-3.39l.17-.785a2.8 2.8 0 0 1 3.845-1.981c2.386 1.028 4.392 1.542 6.017 1.542 5.24 0 9.997-2.046 14.23-6.138 1.652-1.564 2.982-3.25 3.99-4.974.443-.763-.121-1.726-1.008-1.726h-5.039c-.362 0-.725.16-.927.482-.322.441-.725.923-1.128 1.364-2.5 2.608-5.362 3.891-8.667 3.891-2.136 0-3.91-.601-5.32-1.805a7.07 7.07 0 0 1-2.097-3.13 1.161 1.161 0 0 0-1.088-.802H9.55c-.564 0-1.008.361-1.128.923-.745 3.499-1.856 8.68-3.335 15.544a1.248 1.248 0 0 1-1.22.985c-2.46 0-4.273-2.247-3.79-4.614C2.416 24.994 4.754 14.001 7.092 3.05 7.455 1.284 9.027 0 10.882 0h.927a1.4 1.4 0 0 1 1.368 1.694c-1.35 6.276-2.37 11.06-3.061 14.353a1.16 1.16 0 0 0 1.128 1.405h5.16c.443 0 .846-.241 1.048-.642a10.864 10.864 0 0 1 2.217-3.13c2.459-2.607 5.32-3.931 8.546-3.931 2.176 0 3.99.602 5.401 1.805 1.451 1.244 2.298 2.889 2.459 4.854.04.602.564 1.044 1.169 1.044h5.039c.645 0 1.128-.482 1.169-1.124v-.4c0-3.852-1.29-7.062-3.87-9.55-2.58-2.486-5.845-3.73-9.795-3.73-1.773-.021-4.285.625-7.536 1.939a1.507 1.507 0 0 1-2.038-1.719l.145-.664A2.8 2.8 0 0 1 23.094 0h24.711z"/>
    </defs>
    <g fill="none" fill-rule="evenodd">
        <mask id="b" fill="#fff">
            <use xlink:href="#a"/>
        </mask>
        <use fill="#FFF" fill-rule="nonzero" xlink:href="#a"/>
        <g fill="#009A48" fill-rule="nonzero" mask="url(#b)">
            <path d="M0 0h235.128v41.057H0z"/>
        </g>
    </g>
</svg>
